<svg xmlns="http://www.w3.org/2000/svg" viewBox="0 0 217.1 217.1"><defs><style>.a{fill:#ffdd15;}.b{fill:#1d1c1a;}.c{fill:#fff;}.d{fill:#1d1d1b;}</style></defs><title>bicycle</title><rect class="a" x="5.2" y="5.2" width="206.7" height="206.66" rx="24.7"/><path class="b" d="M187.2,217.1H29.9A29.9,29.9,0,0,1,0,187.2V29.9A29.9,29.9,0,0,1,29.9,0H187.2a29.9,29.9,0,0,1,29.9,29.9V187.2A29.9,29.9,0,0,1,187.2,217.1ZM29.9,10.4A19.6,19.6,0,0,0,10.4,29.9V187.2a19.6,19.6,0,0,0,19.5,19.5H187.2a19.6,19.6,0,0,0,19.5-19.5V29.9a19.6,19.6,0,0,0-19.5-19.5Z" transform="translate(0 0)"/><ellipse class="c" cx="43.3" cy="172.5" rx="19.1" ry="18.9"/><path class="d" d="M43.3,194A21.6,21.6,0,1,1,65,172.5,21.6,21.6,0,0,1,43.3,194Zm0-37.8a16.3,16.3,0,1,0,16.4,16.3A16.3,16.3,0,0,0,43.3,156.2Z" transform="translate(0 0)"/><ellipse class="c" cx="142" cy="172.5" rx="19.1" ry="18.9"/><path class="d" d="M142,194a21.6,21.6,0,1,1,21.7-21.5A21.7,21.7,0,0,1,142,194Zm0-37.8a16.3,16.3,0,1,0,16.4,16.3A16.4,16.4,0,0,0,142,156.2Z" transform="translate(0 0)"/><path class="d" d="M43,176.3h-.6a2.6,2.6,0,0,1-1.9-3.2L59.8,92.3a2.6,2.6,0,0,1,2.5-2H80.7a2.7,2.7,0,0,1,0,5.3H64.4L45.6,174.3A2.7,2.7,0,0,1,43,176.3Z" transform="translate(0 0)"/><path class="d" d="M96.3,189.2l-24.1-.3a2.6,2.6,0,0,1-2-1.1,2.5,2.5,0,0,1-.5-2.2c5.6-25.5-6.9-34.9-20-40.8a2.7,2.7,0,0,1-1.3-3.5,2.6,2.6,0,0,1,3.5-1.4c8,3.7,28.9,13.1,23.5,43.8,23.7.6,37.5,0,40-.1s17.4-7.5,24.6-12.8a2.7,2.7,0,0,1,3.1,4.3c-8.4,6.1-25.3,13.2-26,13.5a1.5,1.5,0,0,1-.9.2C116.1,188.9,109.3,189.2,96.3,189.2Z" transform="translate(0 0)"/><circle class="c" cx="147.5" cy="73.7" r="47.4"/><path class="d" d="M147.4,123.8a50.1,50.1,0,1,1,50.1-50.1A50.1,50.1,0,0,1,147.4,123.8Zm0-94.8a44.8,44.8,0,1,0,44.8,44.7A44.8,44.8,0,0,0,147.4,29Z" transform="translate(0 0)"/><path class="c" d="M138.4,27.3c-12.6,11.6-17.2,24.8-3.6,34.8s28.3-.5,34.8-2.5,19.8-6.3,23.9,3.3" transform="translate(0 0)"/><path class="d" d="M147.6,69.1a23.8,23.8,0,0,1-14.3-4.8c-5.9-4.4-9.1-9.6-9.4-15.4-.4-7.4,4-15.5,12.7-23.5l3.6,3.9c-7.5,6.9-11.3,13.6-11,19.3.2,4.2,2.7,8,7.2,11.4,9.7,7.2,20,2.5,27.4-.9a52.4,52.4,0,0,1,5.1-2h.4c7-2.2,21.7-6.8,26.6,4.8L191,63.9c-2.7-6.6-11.9-4.4-20.2-1.9l-.4.2A37.5,37.5,0,0,0,166,64C161.4,66.1,154.8,69.1,147.6,69.1Z" transform="translate(0 0)"/><path class="c" d="M102.6,83.8c7.5-6,18.6-5.5,24.2,0s8.6,12.4,12.1,20.7c2.6,6.2,7.6,16.7,19.7,15.2" transform="translate(0 0)"/><path class="d" d="M156.3,122.5c-12.8,0-17.9-12.2-19.9-17-3.3-8-6.3-14.6-11.5-19.8s-13.8-5.3-20.7.2l-3.3-4.1c8.3-6.7,21-6.6,27.7.1s9.1,13,12.7,21.6,7.5,14.7,17,13.6l.6,5.2Z" transform="translate(0 0)"/></svg>