<svg xmlns="http://www.w3.org/2000/svg" viewBox="0 0 217.1 217.1"><defs><style>.a{fill:#e34800;}.b{fill:#1d1c1a;}.c{fill:#fff;}</style></defs><title>feet-2</title><rect class="a" x="5.2" y="5.2" width="206.7" height="206.66" rx="24.7"/><path class="b" d="M187.2,2100.4H29.9A29.9,29.9,0,0,1,0,2070.5V1913.2a29.9,29.9,0,0,1,29.9-29.9H187.2a29.9,29.9,0,0,1,29.9,29.9v157.3A29.9,29.9,0,0,1,187.2,2100.4ZM29.9,1893.8a19.5,19.5,0,0,0-19.5,19.4v157.3A19.6,19.6,0,0,0,29.9,2090H187.2a19.6,19.6,0,0,0,19.5-19.5V1913.2a19.5,19.5,0,0,0-19.5-19.4Z" transform="translate(0 -1883.3)"/><path class="c" d="M102,2061.5c6.8-5.9,10.4-14.5,2-24.7-6.5-7.8-18.1-16.5-25.2-22-4.1-3.8-11.8-10-5.1-24.3s4.8-29.4-5.1-32.3c-14.9-4.4-30.8,8.4-34.5,16.1-5.9,12.4-1.1,21.2,8.7,32.6s18.6,22.3,22.3,29.4,6.2,16.2,14.4,23.9C85.3,2065.7,95,2067.6,102,2061.5Z" transform="translate(0 -1883.3)"/><path class="b" d="M92,2068a21.4,21.4,0,0,1-14.4-5.8c-6.5-6.2-9.6-13.1-12.3-19.1-.8-2-1.7-3.8-2.5-5.5-3.8-7.3-12.2-17.4-22.1-28.9s-16-20.8-9-35.5c4.1-8.5,21-22.4,37.7-17.5a14,14,0,0,1,8.9,8c3.3,7.3,2.4,18-2.2,27.9-5.6,11.9-.1,17,4,20.7l.4.4,1.9,1.5c7.4,5.8,17.5,13.6,23.6,20.9,8.1,9.8,7.2,20.1-2.3,28.4A17.1,17.1,0,0,1,92,2068ZM62.4,1960c-11.5,0-22.9,9.3-25.9,15.5-5.2,10.8-1.3,18.5,8.3,29.7,11.9,14,19,22.9,22.7,29.9l2.7,5.8c2.6,5.9,5.3,11.9,11.1,17.4s13,6.5,18.9,1.2l1.8,2-1.8-2c7.4-6.4,8-13.4,1.7-21s-15.5-14.5-22.7-20.1l-2.1-1.6H77l-.5-.5c-4.4-3.9-12.5-11.4-5.2-26.8,3.9-8.5,4.8-17.7,2.2-23.5a9.2,9.2,0,0,0-5.6-5.2A20.8,20.8,0,0,0,62.4,1960Z" transform="translate(0 -1883.3)"/><path class="c" d="M81.2,1954.4c8.3-.6,8.9-10.9,8.8-13.4-.1-4.7-2.8-10.3-8.4-10.5s-9,5.3-9,10.7S74.4,1954.7,81.2,1954.4Z" transform="translate(0 -1883.3)"/><path class="b" d="M80.9,1957a9.1,9.1,0,0,1-6.5-2.5c-4-3.8-4.5-10.6-4.5-13.3a15,15,0,0,1,4.1-10.4,10.2,10.2,0,0,1,7.7-2.9c6.9.2,10.8,6.9,11,13s-2.1,15.5-11.3,16.1h-.5Zm.3-2.6Zm.1-21.3a5.1,5.1,0,0,0-3.6,1.5,9.6,9.6,0,0,0-2.5,6.6c.1,3.3.8,7.5,2.9,9.5a3.8,3.8,0,0,0,3,1c6.4-.5,6.3-10.3,6.3-10.7-.1-2.9-1.7-7.7-5.9-7.8Z" transform="translate(0 -1883.3)"/><path class="c" d="M59.5,1952.6c6.6-.9,6.6-9.3,6.4-11.3s-2.9-8.1-7.4-8-7,4.7-6.7,9.1S54,1953.2,59.5,1952.6Z" transform="translate(0 -1883.3)"/><path class="c" d="M44.2,1956.1c5.3-.7,5.3-7.4,5.1-9s-2.2-6.6-5.9-6.5-5.6,3.8-5.3,7.3S39.8,1956.6,44.2,1956.1Z" transform="translate(0 -1883.3)"/><path class="c" d="M32.6,1965.1c4.1-.9,3.7-6.1,3.5-7.3s-2.1-5-4.9-4.7-4.1,3.2-3.8,5.9S29.3,1965.7,32.6,1965.1Z" transform="translate(0 -1883.3)"/><path class="c" d="M25.1,1977.5c3.3-.7,3-5,2.9-6s-1.8-4-4.1-3.8-3.4,2.6-3.1,4.9S22.3,1978,25.1,1977.5Z" transform="translate(0 -1883.3)"/><path class="c" d="M115.8,2061.5c-6.9-5.9-10.4-14.5-2-24.7,6.5-7.8,18-16.5,25.2-22,4-3.8,11.8-10,5.1-24.3s-4.9-29.4,5-32.3c15-4.4,30.9,8.4,34.6,16.1,5.9,12.4,1.1,21.2-8.7,32.6s-18.6,22.3-22.4,29.4-6.1,16.2-14.3,23.9C132.5,2065.7,122.7,2067.6,115.8,2061.5Z" transform="translate(0 -1883.3)"/><path class="b" d="M125.8,2068a17.3,17.3,0,0,1-11.8-4.5c-9.5-8.3-10.3-18.6-2.2-28.4,6-7.3,16.2-15.1,23.6-20.9l2.3-1.9c4-3.7,9.6-8.8,4-20.7-4.7-9.9-5.5-20.6-2.2-27.9a13.6,13.6,0,0,1,8.9-8c16.6-4.9,33.6,9,37.7,17.5,7,14.7-.3,25.2-9.1,35.5s-18.2,21.6-22,28.9c-.9,1.7-1.7,3.5-2.6,5.5-2.7,6-5.8,12.9-12.3,19.1A21.2,21.2,0,0,1,125.8,2068Zm-8.3-8.5c6,5.3,14.2,3.3,19-1.2s8.5-11.5,11.1-17.4c.9-2,1.7-3.9,2.7-5.8,3.6-7,10.8-15.9,22.7-29.9,9.5-11.2,13.4-18.9,8.3-29.7-3.5-7.2-18.4-18.6-31.4-14.8a9,9,0,0,0-5.6,5.2c-2.6,5.8-1.7,15,2.2,23.5,7.2,15.4-.9,22.9-5.2,26.8l-.5.5h-.2l-2,1.6c-7.2,5.6-17.1,13.2-22.8,20.1S110.2,2053.1,117.5,2059.5Z" transform="translate(0 -1883.3)"/><path class="c" d="M136.5,1954.4c-8.2-.6-8.8-10.9-8.8-13.4.1-4.7,2.9-10.3,8.5-10.5s9,5.3,9,10.7S143.4,1954.7,136.5,1954.4Z" transform="translate(0 -1883.3)"/><path class="b" d="M136.9,1957h-.5c-9.2-.6-11.4-10.4-11.3-16.1s4-12.8,11-13a9.9,9.9,0,0,1,7.6,2.9,14.6,14.6,0,0,1,4.1,10.4c0,2.7-.4,9.5-4.4,13.3A9.1,9.1,0,0,1,136.9,1957Zm-.2-5.3a3.9,3.9,0,0,0,3-1c2.1-2,2.8-6.2,2.8-9.5a9.1,9.1,0,0,0-2.5-6.6,4.7,4.7,0,0,0-3.7-1.4c-4.2.1-5.8,4.9-5.9,7.8C130.4,1941.4,130.2,1951.2,136.7,1951.7Z" transform="translate(0 -1883.3)"/><path class="c" d="M158.3,1952.6c-6.6-.9-6.6-9.3-6.4-11.3s2.8-8.1,7.3-8,7,4.7,6.7,9.1S163.8,1953.2,158.3,1952.6Z" transform="translate(0 -1883.3)"/><path class="c" d="M173.6,1956.1c-5.3-.7-5.3-7.4-5.2-9s2.3-6.6,5.9-6.5,5.6,3.8,5.4,7.3S178,1956.6,173.6,1956.1Z" transform="translate(0 -1883.3)"/><path class="c" d="M185.1,1965.1c-4.1-.9-3.7-6.1-3.5-7.3s2.1-5,4.9-4.7,4.2,3.2,3.8,5.9S188.5,1965.7,185.1,1965.1Z" transform="translate(0 -1883.3)"/><path class="c" d="M192.7,1977.5c-3.4-.7-3.1-5-2.9-6s1.7-4,4-3.8,3.4,2.6,3.1,4.9S195.4,1978,192.7,1977.5Z" transform="translate(0 -1883.3)"/><path class="c" d="M108.1,2020.1c20.4-12.5,24.6-26,18-34s-16.4-3.1-17.8,3.9h-.4c-1.4-7-10.9-12.2-17.8-3.9S87.6,2007.6,108.1,2020.1Z" transform="translate(0 -1883.3)"/><path d="M108.1,2023.2l-1.4-.9c-12.8-7.8-20.6-16.8-22-25.3a15.7,15.7,0,0,1,3.3-12.6c3.6-4.2,8.3-6,13-4.8a13.6,13.6,0,0,1,7.1,4.6,12.9,12.9,0,0,1,7-4.6c4.7-1.2,9.4.6,13,4.8a15.4,15.4,0,0,1,3.3,12.6c-1.4,8.5-9.2,17.5-22,25.3Zm-10-38.7c-2.1,0-4.2,1.1-6,3.3a9.8,9.8,0,0,0-2.1,8.3c.6,3.9,3.8,11.8,18.1,20.9,14.2-9.1,17.4-17,18.1-20.9a9.9,9.9,0,0,0-2.2-8.3c-2.2-2.7-4.9-3.8-7.6-3.1a7.7,7.7,0,0,0-5.5,5.8l-.5,2.1h-4.7l-.4-2.1a8,8,0,0,0-5.6-5.8Z" transform="translate(0 -1883.3)"/></svg>