<svg xmlns="http://www.w3.org/2000/svg" viewBox="0 0 217.1 217.1"><defs><style>.a{fill:#5fbc56;}.b{fill:#1d1c1a;}.c{fill:#fff;}.d{fill:#1d1d1b;}.e{fill:#231f20;}</style></defs><title>foot</title><rect class="a" x="5.2" y="5.2" width="206.7" height="206.66" rx="24.7"/><path class="b" d="M187.2,217.6H29.9A29.9,29.9,0,0,1,0,187.7V30.4A29.9,29.9,0,0,1,29.9.5H187.2a29.9,29.9,0,0,1,29.9,29.9V187.7A29.9,29.9,0,0,1,187.2,217.6ZM29.9,11A19.5,19.5,0,0,0,10.4,30.4V187.7a19.6,19.6,0,0,0,19.5,19.5H187.2a19.6,19.6,0,0,0,19.5-19.5V30.4A19.5,19.5,0,0,0,187.2,11Z" transform="translate(0 -0.5)"/><path class="c" d="M62.1,12.4c1.5,19,4.7,107.9,3.4,118.5S46.8,159.6,29,164.3c3.1,12.8,9.1,11.6,11.9,11.9,1.5,7.5,8.7,6.8,12.5,3.1,4,5.3,10.2,6.2,13.4.9,8.4,2.8,14,2.2,16.8-2.5,9.7,0,19-3.7,29.9-37.7s17.2-43.1,20.6-50.8,10-18.8-3.1-27.8-27.7-12.8-20.6-50.5" transform="translate(0 -0.5)"/><path class="c" d="M178.9,141.4a1.5,1.5,0,0,1,1.7.2c3.5,4.1,7.1,7.9,8.7,9.4a15.9,15.9,0,0,0,1.3-7.5c-.3-4.8-3-9.7-8.3-14.9a79.8,79.8,0,0,1-4.5,13l.7.3A1,1,0,0,1,178.9,141.4Z" transform="translate(0 -0.5)"/><path class="c" d="M175.8,139.8a77.9,77.9,0,0,0,4.3-12.6h-1.9c-6.5.2-13.9.4-17.2,4.3,2.3,1.3,8.3,4.1,13,6.1a1.5,1.5,0,0,1,.8,1.1c0,.2-.1.3-.1.5Z" transform="translate(0 -0.5)"/><path class="c" d="M170.5,149.8l1.5-2.6c1.4-2.5,2.7-4.9,3.8-7.4l-1.1-.5a1.2,1.2,0,0,1-1.5.8c-6.3-1.2-14-2.4-16-2.4-1.5,2.5-2.9,4.7-4.3,6.8,2.6.7,9.1,1.9,15.9,3a1.3,1.3,0,0,1,1.1,1.4c0,.2-.1.3-.1.4Z" transform="translate(0 -0.5)"/><path class="c" d="M105.3,196c18.9-4.7,31.7-10.6,41-17.3l-.3-2.5h-.5c-8.1-.6-17.3-1-18.9-.7s-2.5,2-3.6,2.9C111.2,189.1,106.9,193.8,105.3,196Z" transform="translate(0 -0.5)"/><path class="c" d="M146.3,178.7c11.7-8.4,18-18.3,24.2-28.9l-.7-.5a1.3,1.3,0,0,1-1.2.8c-7,0-17.7.3-19.9.6a143.9,143.9,0,0,1-14.9,18.2,116.6,116.6,0,0,0,12.2,4.9,1.2,1.2,0,0,1,.8,1.1v.3a1.4,1.4,0,0,1-.8,1Z" transform="translate(0 -0.5)"/><path class="c" d="M178.5,143a.7.7,0,0,1-.1-.5.7.7,0,0,1,.1-.6l-.7-.3q-1.7,3.5-3.6,6.9c-11.9,20.4-22.1,38-66.6,49.5,36.7,8.6,64.3-20.9,77.5-39.4h0C185,156.8,181.7,149.3,178.5,143Z" transform="translate(0 -0.5)"/><path class="d" d="M177.8,141.6a79.8,79.8,0,0,0,4.5-13c5.3,5.2,8,10.1,8.3,14.9a15.9,15.9,0,0,1-1.3,7.5c-1.6-1.5-5.2-5.3-8.7-9.4a1.5,1.5,0,0,0-1.7-.2,1,1,0,0,0-.4.5.7.7,0,0,0-.1.6.7.7,0,0,0,.1.5c3.2,6.3,6.5,13.8,6.6,15.5h0c-13.2,18.5-40.8,48-77.5,39.4,44.5-11.5,54.7-29.1,66.6-49.5Q176.2,145,177.8,141.6Zm-3.8-3.9c-4.7-2-10.7-4.8-13-6.1,3.3-3.9,10.7-4.1,17.2-4.3h1.9a77.9,77.9,0,0,1-4.3,12.6c-1.1,2.5-2.4,4.9-3.8,7.4l-1.5,2.6c-6.2,10.6-12.5,20.5-24.2,28.9-9.3,6.7-22.1,12.6-41,17.3,1.6-2.2,5.9-6.9,17.7-17.5,1.1-.9,2.4-1.8,3.6-2.9s10.8.1,18.9.7h.5a1.4,1.4,0,0,0,.8-1v-.3a1.2,1.2,0,0,0-.8-1.1,116.6,116.6,0,0,1-12.2-4.9,143.9,143.9,0,0,0,14.9-18.2c2.2-.3,12.9-.6,19.9-.6a1.3,1.3,0,0,0,1.2-.8c0-.1.1-.2.1-.4a1.3,1.3,0,0,0-1.1-1.4c-6.8-1.1-13.3-2.3-15.9-3,1.4-2.1,2.8-4.3,4.3-6.8,2,0,9.7,1.2,16,2.4a1.2,1.2,0,0,0,1.5-.8c0-.2.1-.3.1-.5A1.5,1.5,0,0,0,174,137.7Zm-10.2-1.8c-7.7-1.2-8.1-.7-8.5,0-1.8,3.1-3.6,5.8-5.3,8.5a1.5,1.5,0,0,0-.1,1.3c.2.4.4.9,5.6,2.1-8,.2-8.3.7-8.6,1.1A145.7,145.7,0,0,1,131.2,168a1.3,1.3,0,0,0-.4,1.4c.1.5.3,1.4,6.3,3.8-10.9-.5-11.6,0-12,.3s-2.5,2.1-3.7,3c-17,15.3-19.4,19.1-19.4,20.9h0a1.9,1.9,0,0,0,.7,1.3l.7.4a1.6,1.6,0,0,0,.8.6c29.3,8.3,58.8-5.9,83.1-39.9.2-.2.4-.5.3-1.4s-1.1-4.4-3-8.6c4.2,4.4,4.9,4.3,5.4,4.3a1.5,1.5,0,0,0,1.1-.8,21.3,21.3,0,0,0,2.1-10,19.7,19.7,0,0,0-2.8-8.8,41,41,0,0,0-7.4-8.9c2.3-11,2-20.9,1.8-27.4h0c0-1.2-.1-2.4-.1-3.5h0a1.2,1.2,0,0,0-1.3-1.2,1.1,1.1,0,0,0-.9.4,1.3,1.3,0,0,0-.4.9c.1,1.1.1,2.2.1,3.5h0a105.3,105.3,0,0,1-1.6,26.3h-2.5c-7.7.3-16.4.6-20,6.5a2,2,0,0,0-.1,1.1C158.2,132.7,158.3,133.3,163.8,135.9Z" transform="translate(0 -0.5)"/><path class="e" d="M102.3,196.6l1.7-.3,4.6-1.1,3.2-.8,3.8-1.1,2.1-.7,2.2-.7,2.3-.8,2.4-.9,2.4-1,2.5-1.1c1.8-.8,3.5-1.7,5.2-2.6l1.4-.6,1.3-.8,2.6-1.5,5.3-3.5a80.9,80.9,0,0,0,10-8.7l2.3-2.4,2.1-2.7,1.1-1.3.5-.7.5-.7,1.9-2.8a81.9,81.9,0,0,0,6.4-12.1l2.6-6.2c.8-2,1.6-4.1,2.3-6.1s1.4-4.1,1.9-6.1.5-2,.8-2.9.5-2,.7-2.9.8-3.8,1.2-5.6.6-3.6.8-5.3a83.5,83.5,0,0,0,.8-9.3c.1-2.8.1-5.2.1-7.2s-.2-3.6-.3-4.7V89.8l5.3-.3s0,.5.1,1.6.1,2.8.1,4.9a67,67,0,0,1-.2,7.5,75.7,75.7,0,0,1-1,9.8c-.3,1.7-.6,3.6-1,5.5s-.8,3.8-1.3,5.8a26.3,26.3,0,0,0-.8,3c-.4,1-.7,2-1,3s-1.4,4.1-2.1,6.2-1.6,4.2-2.5,6.3-1.8,4.3-2.8,6.4a100.6,100.6,0,0,1-6.9,12.3l-2.1,3-.5.7-.6.7-1.1,1.4-2.3,2.7-2.5,2.5a78.5,78.5,0,0,1-10.6,8.8l-5.6,3.5-2.7,1.5-1.4.8-1.4.7-5.4,2.5-2.6,1-2.5,1-2.5.9-2.3.7-2.3.8-2.1.6-3.9,1-3.3.8-4.7.9-1.6.3Z" transform="translate(0 -0.5)"/><path class="d" d="M59.4,186.3a9.1,9.1,0,0,1-6.6-2.4,10.7,10.7,0,0,1-7.1,1.4,10.2,10.2,0,0,1-7.8-5.7,15.3,15.3,0,0,1-9.1-4.5c-2.5-2.8-3.7-6.5-3.5-11.2v-1.7l1.7-.6a15.8,15.8,0,0,1,3.1-1,47.6,47.6,0,0,0,6.3-2.4,43.9,43.9,0,0,0,14-9.7l3.7,3.8A50.7,50.7,0,0,1,38.7,163a40.7,40.7,0,0,1-7,2.6l-1.1.4a9.1,9.1,0,0,0,2.1,5.5,10.2,10.2,0,0,0,7.2,2.9H42l.4,2a4.8,4.8,0,0,0,4.1,3.5,4.4,4.4,0,0,0,4.5-1.7l2.9-4.8,1.9,5.3c.7,2,2.6,2.3,4.1,2.2s4.9-1.7,5.1-2.7l1.3-5.6,3.4,4.6c1.6,2.2,5.1,2.5,7.6,1.8s3.3-1.6,3.4-2.3v-.6l.7-3.2,3,1.3a8.4,8.4,0,0,0,9.9-2.5l4.1,3.3A13.8,13.8,0,0,1,85,180a10.5,10.5,0,0,1-6.4,4.3c-3.1.7-7.2.7-10.4-1.3a13.3,13.3,0,0,1-8,3.3Z" transform="translate(0 -0.5)"/><path class="d" d="M121.1,128l-5.1-1.4A166.5,166.5,0,0,1,132.1,88c5.5-9.6,4.1-18.1,1.3-21l3.8-3.7c3.8,4.1,6.8,14.7-.5,27.3A162.3,162.3,0,0,0,121.1,128Z" transform="translate(0 -0.5)"/><path class="d" d="M63.8,130.9c-1.3-14.4-1.2-32.7-1.2-47.5.1-7.5.1-14-.1-18.7C61.7,39.2,60,15.8,58.1,5.2l5.2-1c2.3,13.2,3.9,39.8,4.5,60.3.2,4.9.2,11.4.1,19,0,14.6-.1,32.7,1.2,46.9Z" transform="translate(0 -0.5)"/><path class="d" d="M97.3,177.2l-4.2-3.3c5.2-6.6,4.2-13,1.7-17.9-7.2,2-19.2,4.3-29.4,1.3-5.9-1.7-10.5-6.6-10.9-11.6s2.1-7.7,6.7-9.9c10.1-4.9,23.3,1.1,31.4,8.7a38.9,38.9,0,0,1,4.6,5.3c10.1-3.4,16.1-11,19.3-24.7l5.2,1.3c-3.6,14.9-10.5,23.9-21.8,28.1C103.2,161.4,103.4,169.4,97.3,177.2ZM69.2,139.3a13.2,13.2,0,0,0-5.7,1.2c-2.6,1.3-3.9,2.9-3.7,4.8s3.3,5.8,7.1,6.9c8.2,2.4,18.2.8,24.8-.8a21.8,21.8,0,0,0-2.7-3C83.7,143.4,75.9,139.3,69.2,139.3Z" transform="translate(0 -0.5)"/><path class="d" d="M134.2,68.2c-3.5-4.3-8.3-7.7-13-10.9-7.4-5.1-14.3-9.9-15-17.8s0-19.6.6-27.1c.1-1.8.2-3.6.3-5.1l5.3.3c-.1,1.6-.2,3.3-.3,5.2-.6,7.3-1.3,17.4-.6,26.2.4,5.5,6.1,9.4,12.7,13.9,4.7,3.3,10.2,7,14.1,12Z" transform="translate(0 -0.5)"/></svg>