<svg xmlns="http://www.w3.org/2000/svg" viewBox="0 0 217.5 217.1"><defs><style>.a{fill:#d095d4;}.b{fill:#1d1c1a;}.c{fill:#fff;}.d{fill:#231f20;}</style></defs><title>hands</title><rect class="a" x="5.2" y="5.2" width="206.7" height="206.66" rx="24.7"/><path class="b" d="M187,217.1H29.7A29.9,29.9,0,0,1-.2,187.2V29.9A29.9,29.9,0,0,1,29.7,0H187a29.9,29.9,0,0,1,29.9,29.9V187.2A29.9,29.9,0,0,1,187,217.1ZM29.7,10.4A19.5,19.5,0,0,0,10.3,29.9V187.2a19.5,19.5,0,0,0,19.4,19.5H187a19.5,19.5,0,0,0,19.5-19.5V29.9A19.5,19.5,0,0,0,187,10.4Z" transform="translate(0.2 0)"/><path class="c" d="M135.2,90.9c-6.6-2.8-19,6.6-26.1,8.3-7.1-1.9-19.2-11-25.7-8.1s-17.8,12.8-17.8,19.1,6.2,23.3,11.6,25.4,24.5,7,27.5,10.8a24.2,24.2,0,0,1,3.6,7.4v4.9a13.8,13.8,0,0,1,.6-2.6,22.3,22.3,0,0,1,.4,2.3v-3.6a33.9,33.9,0,0,1,4.7-8.5c2.9-3.8,22.1-8.8,27.5-10.9s11.6-19.1,11.6-25.3S141.9,93.9,135.2,90.9Z" transform="translate(0.2 0)"/><path class="d" d="M4.2,188,.7,184.1c2.8-2.6,6.1-5.8,9.6-9.3,14.4-14.3,19.1-18.3,22.7-17.5s30-3.6,37.2-6.2,29.9,3,34.7,10.7l.4.5c.8-1.6,1.6-6.4-.9-11.7s-14.2-9.2-21.8-11.5c-4.4-1.3-7.8-2.4-9.7-3.6-3.5-2.4-8.9-9.6-10-18.6A24.5,24.5,0,0,1,69.5,97c13.7-15.1,23.8-7.8,28.1-4.7l.8.5c3.9,2.8,6.4,3.8,7.7,4.1a68.2,68.2,0,0,0-3.3-7.2,34.2,34.2,0,0,1-1.7-3.5C99,84.1,86,78.9,83.5,78.9h-.1c-2.2.3-16.9,5.5-23.4,9.6L57.2,84c6.8-4.2,22-9.8,25.6-10.3s21.8,6.1,23.2,10.5l1.5,3.1c3,5.9,5.8,11.4,2.7,13.9-1.1.9-4.3,3.4-14.9-4l-.8-.6c-4.2-3-10.5-7.6-21.1,3.9a19.2,19.2,0,0,0-5.2,15.8c.9,7.3,5.5,13.3,7.7,14.8s4.6,1.8,8.2,2.9c9.1,2.7,21.5,6.5,25.1,14.4s2.7,16.6-1.7,19c-1.9,1.1-4.8.9-7.1-2.8-3.4-5.5-22.6-10.5-28.4-8.5s-34.3,7.2-39.9,6.4c-2.7.8-11.9,10-18.1,16.1C10.5,182.1,7.1,185.4,4.2,188Z" transform="translate(0.2 0)"/><path class="d" d="M70.9,82.6l-4.6-2.7c8.7-15,12.8-39.7,9.4-47.2a2.1,2.1,0,0,0-.8-1.1c-1.5,1.3-3.4,8.7-4.7,13.6-1.9,7.5-4.1,16.1-7.7,21.7l-5.6,8.7.7-10.3c.8-11.6-1.1-23.3-3-26.2-1.2,2.4-3.1,10.7-4.4,36.8-.1,1.3-.1,2.3-.2,3l-5.3-.3c.1-.7.1-1.7.2-2.9,1.8-34.3,4.3-41.3,8.5-42.3a4.5,4.5,0,0,1,4.1,1c3.2,2.7,4.7,10.5,5.3,18,.8-2.8,1.6-5.7,2.3-8.5,2.7-10.5,4.8-18.8,10.6-17.6,1.5.3,3.5,1.2,4.9,4.3C84.9,40.2,80,67,70.9,82.6Z" transform="translate(0.2 0)"/><path class="d" d="M3.5,144.2.6,139.8c10-6.7,27.4-24.8,31.1-31.5S40.2,87.1,41,74c.1-2.8.2-5.4.3-8,.3-10.2.6-18.3,7.2-19.8l1.1,5.2c-2.6.6-2.8,7.5-3,14.8-.1,2.6-.2,5.3-.3,8.2-.9,13.8-5.7,28.8-9.9,36.4S13.5,137.5,3.5,144.2Z" transform="translate(0.2 0)"/><path class="d" d="M213.6,188c-2.9-2.6-6.2-5.9-9.8-9.4-6.1-6.1-15.4-15.3-18.1-16.1-5.6.8-33.5-4.1-39.8-6.4s-25.1,3-28.5,8.5c-2.3,3.7-5.1,3.9-7.1,2.8-4.3-2.4-5.2-11.4-1.7-19s16.1-11.7,25.2-14.4c3.5-1.1,6.9-2.1,8.2-2.9s6.7-7.5,7.6-14.8a18.9,18.9,0,0,0-5.2-15.8c-10.5-11.5-16.9-6.9-21.1-3.9l-.8.6c-10.6,7.4-13.8,4.9-14.8,4-3.2-2.5-.4-8,2.6-13.9l1.5-3.1c1.5-4.4,19.9-11,23.3-10.5s18.8,6.1,25.5,10.3l-2.8,4.5c-6.5-4.1-21.2-9.3-23.5-9.6h0c-2.4,0-15.4,5.2-17.6,7.3a34.2,34.2,0,0,1-1.7,3.5,68,68,0,0,0-3.2,7.2c1.3-.3,3.8-1.3,7.7-4.1l.7-.5c4.3-3.1,14.4-10.4,28.1,4.7a24.5,24.5,0,0,1,6.6,19.9c-1.1,9-6.5,16.2-10,18.6-1.9,1.2-5.3,2.3-9.6,3.6-7.7,2.3-19.2,5.7-21.9,11.5s-1.7,10.1-.8,11.7l.3-.5c4.9-7.7,26.6-13.5,34.8-10.7s34,6.8,37.2,6.2,8.3,3.2,22.7,17.5c3.5,3.5,6.8,6.7,9.6,9.3Z" transform="translate(0.2 0)"/><path class="d" d="M147,82.6c-9.1-15.6-14.1-42.4-9.7-52,1.3-3.1,3.3-4,4.8-4.3,5.9-1.2,8,7.1,10.7,17.6.7,2.8,1.4,5.7,2.3,8.5.5-7.5,2-15.3,5.2-18a4.6,4.6,0,0,1,4.2-1c4.1,1,6.7,8,8.5,42.3,0,1.2.1,2.2.1,2.9l-5.3.3c0-.7-.1-1.7-.1-3-1.4-26.1-3.3-34.4-4.5-36.8-1.8,2.9-3.8,14.6-3,26.2l.7,10.3-5.5-8.7c-3.7-5.6-5.8-14.2-7.8-21.7-1.2-4.9-3.1-12.3-4.6-13.6a2.3,2.3,0,0,0-.9,1.1c-3.4,7.5.7,32.2,9.5,47.2Z" transform="translate(0.2 0)"/><path class="d" d="M214.3,144.2c-10-6.7-28.4-25.4-32.8-33.4s-9.1-22.6-9.9-36.4c-.2-2.9-.3-5.6-.4-8.2-.2-7.3-.4-14.2-2.9-14.8l1.1-5.2c6.6,1.5,6.8,9.6,7.1,19.8.1,2.6.2,5.2.4,8,.8,13.1,5.2,27.1,9.2,34.3s21.1,24.8,31.2,31.5Z" transform="translate(0.2 0)"/></svg>