<svg xmlns="http://www.w3.org/2000/svg" viewBox="0 0 217.1 217.1"><defs><style>.a{fill:#ff9b1a;}.b{fill:#1d1c1a;}.c{fill:#fff;}.d{fill:#231f20;}</style></defs><title>leather</title><rect class="a" x="5.2" y="5.2" width="206.7" height="206.66" rx="24.7"/><path class="b" d="M187.2,217.1H29.9A29.9,29.9,0,0,1,0,187.2V29.9A29.9,29.9,0,0,1,29.9,0H187.2a29.9,29.9,0,0,1,29.9,29.9V187.2A29.9,29.9,0,0,1,187.2,217.1ZM29.9,10.4A19.6,19.6,0,0,0,10.4,29.9V187.2a19.6,19.6,0,0,0,19.5,19.5H187.2a19.6,19.6,0,0,0,19.5-19.5V29.9a19.6,19.6,0,0,0-19.5-19.5Z" transform="translate(0 0)"/><path class="c" d="M78.8,135.7c12.3-21.4,30.6-15.1,42.9-8.8,0,0,6.4-9.5,10.2-15.8-34.9-38-15.7-55.5.8-73.7.5-1.2-3.8-5.9-9.3-13.8C103.8,34.7,97,27.5,89.4,20c-1.7.8-4.7,3.6-11.9,3.6S67.3,20.8,65.6,20c-7.6,7.5-14.4,14.7-34,3.6-5.5,7.9-9.8,12.6-9.3,13.8,16.5,18.2,35.7,35.7.8,73.7,3.8,6.3,10.2,15.8,10.2,15.8,12.3-6.3,30.6-12.6,42.9,8.8Z" transform="translate(0 0)"/><path class="d" d="M80.3,138.3H74.7l-.8-1.3c-11-19.1-26.8-14.2-39.4-7.7l-2.1,1.1-1.3-2c-.1-.1-6.4-9.6-10.3-15.9l-1-1.7,1.4-1.5c31.7-34.6,16.9-50.7,1.3-67.7l-2.2-2.4-.3-.4-.2-.5c-.8-2.1.5-3.9,4.5-9.2,1.4-1.9,3.2-4.3,5.1-7.1l1.4-1.9,2.1,1.2c17.5,9.9,23.3,4.3,30.5-2.9l1.7-1.6,1.6.8,1.4.7a15.7,15.7,0,0,0,9.4,2.6,15.7,15.7,0,0,0,9.4-2.6l1.4-.7,1.6-.8,1.7,1.6c7.2,7.2,13,12.8,30.5,2.9l2.1-1.2,1.4,1.9c1.9,2.8,3.7,5.2,5.1,7.1,4,5.3,5.3,7.1,4.5,9.2v.5l-.4.4-2.2,2.4c-15.6,17-30.4,33.1,1.3,67.7l1.4,1.5-1,1.7c-3.9,6.3-10.2,15.8-10.3,15.9l-1.3,2-2.1-1.1c-12.6-6.5-28.4-11.4-39.4,7.7ZM53.7,118.2c8.1,0,16.8,3.3,23.8,14.4,13.8-21.8,34.2-13.6,43.3-9.1,1.8-2.7,5.2-7.8,7.8-12.1C95.4,74.2,113,55,128.6,38l1.1-1.2c-.7-1.1-2-2.8-3.3-4.5L122.6,27c-18.5,9.7-26.4,3.3-33.6-3.7a21.8,21.8,0,0,1-11.5,2.9A21.8,21.8,0,0,1,66,23.3c-7.2,7-15.1,13.4-33.6,3.7l-3.8,5.3c-1.3,1.7-2.6,3.4-3.3,4.5L26.4,38c15.6,17,33.2,36.2,0,73.4,2.6,4.3,6,9.4,7.8,12.1C38.7,121.3,45.9,118.2,53.7,118.2Z" transform="translate(0 0)"/><path class="c" d="M63.7,163.2s24.6-10.7,39.4-9.1c9.9,1.1,16.7,4.8,21.1,17.9,4.2,15.9-6.2,23.7-16.5,25s-18.2-1.6-25.7-5a127.3,127.3,0,0,0-15.7-5.2Z" transform="translate(0 0)"/><path class="b" d="M102.9,200c-8.2,0-15.4-2.6-22-5.5s-15.2-5.1-15.3-5.2a2.5,2.5,0,0,1-1.9-2.2l-2.6-23.6a2.7,2.7,0,0,1,1.5-2.8c1.1-.4,25.5-10.9,40.8-9.2,12.4,1.3,19.1,7,23.3,19.6v.2c2,7.3,1.2,13.8-2.2,18.9s-9.4,8.5-16.4,9.4A31.2,31.2,0,0,1,102.9,200ZM68.8,184.7a145,145,0,0,1,14.3,4.9c7.2,3.2,15.1,6,24.3,4.8,5.5-.8,10.2-3.4,12.7-7.2s3.1-8.7,1.5-14.5c-4-12.1-9.9-15-18.8-16-11.7-1.2-30.4,5.8-36.2,8.2Z" transform="translate(0 0)"/><path class="c" d="M58.1,189.1c-13,1.5-19.7.8-21.6-10.2h0c-1-11.1,5.6-13.3,18.6-15.1Z" transform="translate(0 0)"/><path class="b" d="M50.1,192.3c-8.3,0-14.4-2.5-16.2-12.9,0-.2-.1-.3,0-.5-1.2-13.5,8.3-15.9,20.8-17.6a2.8,2.8,0,0,1,2,.5,2.5,2.5,0,0,1,1,1.8l3.1,25.2a3.6,3.6,0,0,1-.6,2,2.9,2.9,0,0,1-1.8,1A81.9,81.9,0,0,1,50.1,192.3ZM39.2,178.7c1.3,7.4,4.4,9.1,16,8.1l-2.4-19.9c-11.7,1.9-14.3,4.4-13.6,11.8Z" transform="translate(0 0)"/><path class="d" d="M151.7,163.7h-.1c-12.2-.6-22.1-5.5-29.4-14.5-22.1-27.3-13.4-82.9-13-85.3A2.6,2.6,0,0,1,113,62l21.3,11.1a2.7,2.7,0,0,1,1.4,3.1c-1.4,4.4-7,26.5,12.7,33.8a13,13,0,0,0,6.5,0c20.1-7.8,13.6-31.2,12.8-33.8a2.8,2.8,0,0,1,1.3-3.1L190.4,62a2.4,2.4,0,0,1,2.3,0,2.5,2.5,0,0,1,1.5,1.9c.4,2.3,10.3,57.3-11.6,84.7-7.5,9.5-17.9,14.5-30.8,15.1ZM113.9,68.4c-1.5,12.9-5,55.9,12.4,77.4,6.3,7.8,14.9,12,25.4,12.6s20.2-4.9,26.7-13.1c17.3-21.7,12.9-64.3,11.1-76.9l-16.1,8.4c3.5,13.8,1.1,31.3-16.5,38.1a16.5,16.5,0,0,1-10.3,0c-17.8-6.5-20.1-24.1-16.6-38.1Z" transform="translate(0 0)"/></svg>