<svg xmlns="http://www.w3.org/2000/svg" viewBox="0 0 217.1 217.1"><defs><style>.a{fill:#1db9db;}.b{fill:#1d1c1a;}.c{fill:#fff;}.d{fill:#1d1d1b;}</style></defs><title>rain</title><rect class="a" x="5.2" y="5.2" width="206.7" height="206.66" rx="24.7"/><path class="b" d="M187.2,217.1H29.9A29.9,29.9,0,0,1,0,187.2V29.9A29.9,29.9,0,0,1,29.9,0H187.2a29.9,29.9,0,0,1,29.9,29.9V187.2A29.9,29.9,0,0,1,187.2,217.1ZM29.9,10.4A19.6,19.6,0,0,0,10.4,29.9V187.2a19.6,19.6,0,0,0,19.5,19.5H187.2a19.6,19.6,0,0,0,19.5-19.5V29.9a19.6,19.6,0,0,0-19.5-19.5Z" transform="translate(0 0)"/><path class="c" d="M154.1,91.6a48.9,48.9,0,1,0-97.8.4" transform="translate(0 0)"/><path class="d" d="M56.3,94.7a2.7,2.7,0,0,1-2.7-2.6,51.6,51.6,0,0,1,51.3-51.8h.3a51.5,51.5,0,0,1,51.5,51.3,2.6,2.6,0,0,1-2.6,2.6h0a2.6,2.6,0,0,1-2.7-2.6,46.2,46.2,0,0,0-46.2-46h-.3A46.2,46.2,0,0,0,58.9,92a2.7,2.7,0,0,1-2.6,2.7Z" transform="translate(0 0)"/><path class="d" d="M31.6,94.8a2.7,2.7,0,0,1,0-5.3l147.2-.8a2.8,2.8,0,0,1,2.7,2.7,2.7,2.7,0,0,1-2.7,2.6l-147.2.8Z" transform="translate(0 0)"/><path class="d" d="M105,45.2a2.7,2.7,0,0,1-2.7-2.7V18.2a2.7,2.7,0,0,1,2.7-2.7h0a2.6,2.6,0,0,1,2.6,2.6V42.5a2.5,2.5,0,0,1-2.6,2.7Z" transform="translate(0 0)"/><path class="d" d="M70.1,59.7a2.7,2.7,0,0,1-1.8-.8L51.1,41.8a2.5,2.5,0,0,1,0-3.7,2.6,2.6,0,0,1,3.7,0L72,55.1a2.7,2.7,0,0,1,0,3.8A2.7,2.7,0,0,1,70.1,59.7Z" transform="translate(0 0)"/><path class="d" d="M139.7,59.6a2.7,2.7,0,0,1-1.8-.8,2.6,2.6,0,0,1-.1-3.7l17.3-17.5a2.6,2.6,0,0,1,3.8,0,2.7,2.7,0,0,1,0,3.7L141.6,58.8A2.7,2.7,0,0,1,139.7,59.6Z" transform="translate(0 0)"/><path class="d" d="M139.8,59.5a2.9,2.9,0,0,1-1.9-.8,2.7,2.7,0,0,1,0-3.7l16.9-17a2.6,2.6,0,0,1,3.8,0,2.7,2.7,0,0,1,0,3.7l-16.9,17A2.7,2.7,0,0,1,139.8,59.5Z" transform="translate(0 0)"/><path class="d" d="M123.5,48.7a1.8,1.8,0,0,1-1-.2,2.7,2.7,0,0,1-1.5-3.4l9.1-22.7a2.6,2.6,0,0,1,3.5-1.5,2.6,2.6,0,0,1,1.4,3.4L126,47A2.6,2.6,0,0,1,123.5,48.7Z" transform="translate(0 0)"/><path class="d" d="M150.4,75.2a2.7,2.7,0,0,1-2.5-1.6,2.8,2.8,0,0,1,1.4-3.5l22.5-9.6a2.6,2.6,0,0,1,3.5,1.4,2.6,2.6,0,0,1-1.4,3.5L151.4,75Z" transform="translate(0 0)"/><path class="d" d="M85.8,49.1a2.7,2.7,0,0,1-2.5-1.6L73.6,25.1A2.6,2.6,0,0,1,75,21.6,2.7,2.7,0,0,1,78.5,23l9.7,22.4a2.6,2.6,0,0,1-1.4,3.5A1.8,1.8,0,0,1,85.8,49.1Z" transform="translate(0 0)"/><path class="d" d="M59.7,75.8l-1-.2L36,66.5a2.7,2.7,0,1,1,2-5l22.7,9.1a2.7,2.7,0,0,1-1,5.2Z" transform="translate(0 0)"/><path class="c" d="M121.9,162.5c8.3,3.1,16-2.1,18.1-7.1,2.9-7.3.2-22.3-.2-33.5-8.9,6.9-22,14.6-25.7,21.5-2.5,4.9-1.5,14.1,6.3,18.4Z" transform="translate(0 0)"/><path class="d" d="M127,166.1a16.3,16.3,0,0,1-6-1.1h-.2l-1.5-.6h-.2c-9.4-5.3-10.3-16.3-7.3-22s10.8-11.2,18.4-16.6c2.8-2,5.5-3.9,7.9-5.8a2.8,2.8,0,0,1,2.8-.3,2.5,2.5,0,0,1,1.5,2.3c.1,3,.4,6.3.7,9.8.8,9.3,1.7,18.9-.7,24.8S134.5,166.1,127,166.1Zm-4.1-6c7.1,2.6,13.2-2.2,14.6-5.7s1.1-14.1.3-22.4c-.1-1.6-.3-3.3-.4-5l-4.1,2.9c-6.8,4.9-14.5,10.3-16.8,14.8s-1.5,11,5.1,14.8Z" transform="translate(0 0)"/><path class="c" d="M79.6,143c8.3,3.1,16-2.1,18-7.2,3-7.2.3-22.3-.2-33.5-8.8,6.9-22,14.7-25.6,21.6-2.5,4.8-1.5,14.1,6.3,18.4Z" transform="translate(0 0)"/><path class="d" d="M84.7,146.6a19.2,19.2,0,0,1-6.1-1.1h-.1l-1.6-.7h-.1c-9.4-5.2-10.3-16.3-7.3-22s10.8-11.1,18.4-16.5l7.9-5.8a2.5,2.5,0,0,1,2.7-.4,3,3,0,0,1,1.6,2.3c.1,3.1.4,6.3.7,9.8.8,9.3,1.6,19-.7,24.8S92.1,146.6,84.7,146.6Zm-4.1-6.1c7.1,2.6,13.2-2.2,14.6-5.7s1-14,.3-22.3c-.1-1.7-.3-3.4-.4-5.1l-4.1,3c-6.8,4.8-14.5,10.3-16.8,14.7s-1.5,11.1,5.1,14.8Z" transform="translate(0 0)"/><path class="c" d="M80.3,194.7c8.3,3.1,16.1-2.1,18.1-7.2,2.9-7.2.2-22.3-.2-33.4-8.8,6.9-22,14.6-25.6,21.5-2.6,4.8-1.5,14.1,6.2,18.4Z" transform="translate(0 0)"/><path class="d" d="M85.4,198.3a19.1,19.1,0,0,1-6-1.1h-.2l-1.5-.7h-.2c-9.4-5.2-10.3-16.3-7.3-21.9S81,163.2,88.6,157.8l8-5.8a2.6,2.6,0,0,1,2.7-.4,2.8,2.8,0,0,1,1.5,2.3c.2,3.1.4,6.4.7,9.8.9,9.3,1.7,19-.6,24.8S92.9,198.3,85.4,198.3Zm-4.1-6.1c7.2,2.7,13.2-2.2,14.6-5.7s1.1-14,.4-22.3c-.2-1.7-.3-3.4-.5-5.1l-4.1,3c-6.8,4.8-14.5,10.3-16.8,14.7s-1.5,11.1,5.1,14.8Z" transform="translate(0 0)"/></svg>